<mxfile host="app.diagrams.net" agent="Mozilla/5.0 (Windows NT 10.0; Win64; x64) AppleWebKit/537.36 (KHTML, like Gecko) Chrome/129.0.0.0 Safari/537.36 Edg/129.0.0.0" version="24.7.16">
  <diagram name="第 1 页" id="n_-BP2Z6rM-4rdSZ633D">
    <mxGraphModel dx="1386" dy="781" grid="1" gridSize="10" guides="1" tooltips="1" connect="1" arrows="1" fold="1" page="1" pageScale="1" pageWidth="827" pageHeight="1169" math="0" shadow="0">
      <root>
        <mxCell id="0" />
        <mxCell id="1" parent="0" />
        <mxCell id="bnF_GTkMxTmzhYA7cZSp-13" style="edgeStyle=orthogonalEdgeStyle;rounded=0;orthogonalLoop=1;jettySize=auto;html=1;startArrow=none;startFill=0;endArrow=classic;endFill=1;strokeWidth=3;fillColor=#e1d5e7;strokeColor=#9673a6;" edge="1" parent="1" source="bnF_GTkMxTmzhYA7cZSp-1" target="bnF_GTkMxTmzhYA7cZSp-2">
          <mxGeometry relative="1" as="geometry" />
        </mxCell>
        <mxCell id="bnF_GTkMxTmzhYA7cZSp-16" style="edgeStyle=orthogonalEdgeStyle;rounded=0;orthogonalLoop=1;jettySize=auto;html=1;strokeWidth=3;fillColor=#e1d5e7;strokeColor=#9673a6;" edge="1" parent="1" source="bnF_GTkMxTmzhYA7cZSp-1" target="bnF_GTkMxTmzhYA7cZSp-10">
          <mxGeometry relative="1" as="geometry">
            <Array as="points">
              <mxPoint x="420" y="220" />
              <mxPoint x="170" y="220" />
            </Array>
          </mxGeometry>
        </mxCell>
        <mxCell id="bnF_GTkMxTmzhYA7cZSp-1" value="通信ミドル" style="verticalLabelPosition=bottom;html=1;verticalAlign=top;align=center;strokeColor=#9673a6;fillColor=#e1d5e7;shape=mxgraph.azure.virtual_machine;fontSize=16;strokeWidth=3;" vertex="1" parent="1">
          <mxGeometry x="370" y="260" width="100" height="70" as="geometry" />
        </mxCell>
        <mxCell id="bnF_GTkMxTmzhYA7cZSp-2" value="分析ミドル" style="verticalLabelPosition=bottom;html=1;verticalAlign=top;align=center;strokeColor=#9673a6;fillColor=#e1d5e7;shape=mxgraph.azure.virtual_machine;fontSize=16;strokeWidth=3;" vertex="1" parent="1">
          <mxGeometry x="620" y="260" width="100" height="70" as="geometry" />
        </mxCell>
        <mxCell id="bnF_GTkMxTmzhYA7cZSp-9" style="edgeStyle=orthogonalEdgeStyle;rounded=0;orthogonalLoop=1;jettySize=auto;html=1;strokeWidth=3;fillColor=#e1d5e7;strokeColor=#9673a6;" edge="1" parent="1" source="bnF_GTkMxTmzhYA7cZSp-8" target="bnF_GTkMxTmzhYA7cZSp-2">
          <mxGeometry relative="1" as="geometry" />
        </mxCell>
        <mxCell id="bnF_GTkMxTmzhYA7cZSp-8" value="EVENT_DB" style="image;aspect=fixed;html=1;points=[];align=center;fontSize=12;image=img/lib/azure2/databases/Azure_Database_PostgreSQL_Server.svg;strokeWidth=3;fillColor=#e1d5e7;strokeColor=#9673a6;" vertex="1" parent="1">
          <mxGeometry x="906" y="255" width="60" height="80" as="geometry" />
        </mxCell>
        <mxCell id="bnF_GTkMxTmzhYA7cZSp-10" value="DTS-D1/D2/G1" style="image;aspect=fixed;html=1;points=[];align=center;fontSize=16;image=img/lib/azure2/other/Connected_Vehicle_Platform.svg;strokeWidth=3;fillColor=#e1d5e7;strokeColor=#9673a6;" vertex="1" parent="1">
          <mxGeometry x="130" y="264.5" width="79.77" height="61" as="geometry" />
        </mxCell>
        <mxCell id="bnF_GTkMxTmzhYA7cZSp-12" style="edgeStyle=orthogonalEdgeStyle;rounded=0;orthogonalLoop=1;jettySize=auto;html=1;entryX=0;entryY=0.5;entryDx=0;entryDy=0;entryPerimeter=0;strokeWidth=3;fillColor=#e1d5e7;strokeColor=#9673a6;" edge="1" parent="1" source="bnF_GTkMxTmzhYA7cZSp-10" target="bnF_GTkMxTmzhYA7cZSp-1">
          <mxGeometry relative="1" as="geometry" />
        </mxCell>
        <mxCell id="bnF_GTkMxTmzhYA7cZSp-15" style="edgeStyle=orthogonalEdgeStyle;rounded=0;orthogonalLoop=1;jettySize=auto;html=1;entryX=0.5;entryY=1;entryDx=0;entryDy=0;entryPerimeter=0;strokeWidth=3;fillColor=#e1d5e7;strokeColor=#9673a6;" edge="1" parent="1" source="bnF_GTkMxTmzhYA7cZSp-2" target="bnF_GTkMxTmzhYA7cZSp-1">
          <mxGeometry relative="1" as="geometry">
            <Array as="points">
              <mxPoint x="670" y="390" />
              <mxPoint x="420" y="390" />
            </Array>
          </mxGeometry>
        </mxCell>
      </root>
    </mxGraphModel>
  </diagram>
</mxfile>
